<mxfile host="app.diagrams.net" agent="Mozilla/5.0 (X11; Linux x86_64) AppleWebKit/537.36 (KHTML, like Gecko) Chrome/130.0.0.0 Safari/537.36" version="24.8.3">
  <diagram name="Page-1" id="Pfr0op1CqM1NqQbg3tKo">
    <mxGraphModel dx="2258" dy="1207" grid="1" gridSize="10" guides="1" tooltips="1" connect="1" arrows="1" fold="1" page="1" pageScale="1" pageWidth="850" pageHeight="1100" math="0" shadow="0">
      <root>
        <mxCell id="0" />
        <mxCell id="1" parent="0" />
        <mxCell id="6UEPnQRUCLDMeraKKGYE-6" style="edgeStyle=orthogonalEdgeStyle;rounded=0;orthogonalLoop=1;jettySize=auto;html=1;" edge="1" parent="1" source="6UEPnQRUCLDMeraKKGYE-3" target="6UEPnQRUCLDMeraKKGYE-1">
          <mxGeometry relative="1" as="geometry" />
        </mxCell>
        <mxCell id="6UEPnQRUCLDMeraKKGYE-29" style="edgeStyle=none;rounded=0;orthogonalLoop=1;jettySize=auto;html=1;fillColor=#dae8fc;strokeColor=#6c8ebf;" edge="1" parent="1" source="6UEPnQRUCLDMeraKKGYE-3" target="6UEPnQRUCLDMeraKKGYE-28">
          <mxGeometry relative="1" as="geometry" />
        </mxCell>
        <mxCell id="6UEPnQRUCLDMeraKKGYE-3" value="&lt;font color=&quot;#7ea6e0&quot;&gt;Team Member&lt;/font&gt;" style="shape=umlActor;verticalLabelPosition=bottom;verticalAlign=top;html=1;outlineConnect=0;fillColor=#dae8fc;strokeColor=#6c8ebf;" vertex="1" parent="1">
          <mxGeometry x="186" y="500" width="30" height="60" as="geometry" />
        </mxCell>
        <mxCell id="6UEPnQRUCLDMeraKKGYE-7" style="edgeStyle=orthogonalEdgeStyle;rounded=0;orthogonalLoop=1;jettySize=auto;html=1;" edge="1" parent="1" source="6UEPnQRUCLDMeraKKGYE-4" target="6UEPnQRUCLDMeraKKGYE-1">
          <mxGeometry relative="1" as="geometry" />
        </mxCell>
        <mxCell id="6UEPnQRUCLDMeraKKGYE-19" style="edgeStyle=none;rounded=0;orthogonalLoop=1;jettySize=auto;html=1;fillColor=#d5e8d4;strokeColor=#82b366;entryX=0;entryY=0.5;entryDx=0;entryDy=0;" edge="1" parent="1" source="6UEPnQRUCLDMeraKKGYE-4" target="6UEPnQRUCLDMeraKKGYE-16">
          <mxGeometry relative="1" as="geometry" />
        </mxCell>
        <mxCell id="6UEPnQRUCLDMeraKKGYE-20" style="edgeStyle=none;rounded=0;orthogonalLoop=1;jettySize=auto;html=1;fillColor=#d5e8d4;strokeColor=#82b366;entryX=0;entryY=0.5;entryDx=0;entryDy=0;" edge="1" parent="1" source="6UEPnQRUCLDMeraKKGYE-4" target="6UEPnQRUCLDMeraKKGYE-17">
          <mxGeometry relative="1" as="geometry" />
        </mxCell>
        <mxCell id="6UEPnQRUCLDMeraKKGYE-48" style="edgeStyle=none;rounded=0;orthogonalLoop=1;jettySize=auto;html=1;entryX=0;entryY=0.5;entryDx=0;entryDy=0;fillColor=#d5e8d4;strokeColor=#82b366;" edge="1" parent="1" source="6UEPnQRUCLDMeraKKGYE-4" target="6UEPnQRUCLDMeraKKGYE-47">
          <mxGeometry relative="1" as="geometry" />
        </mxCell>
        <mxCell id="6UEPnQRUCLDMeraKKGYE-4" value="&lt;font color=&quot;#97d077&quot;&gt;Project Manager&lt;/font&gt;" style="shape=umlActor;verticalLabelPosition=bottom;verticalAlign=top;html=1;outlineConnect=0;fillColor=#d5e8d4;strokeColor=#82b366;" vertex="1" parent="1">
          <mxGeometry x="186" y="730" width="30" height="60" as="geometry" />
        </mxCell>
        <mxCell id="6UEPnQRUCLDMeraKKGYE-8" style="edgeStyle=orthogonalEdgeStyle;rounded=0;orthogonalLoop=1;jettySize=auto;html=1;" edge="1" parent="1" source="6UEPnQRUCLDMeraKKGYE-5" target="6UEPnQRUCLDMeraKKGYE-1">
          <mxGeometry relative="1" as="geometry" />
        </mxCell>
        <mxCell id="6UEPnQRUCLDMeraKKGYE-21" style="rounded=0;orthogonalLoop=1;jettySize=auto;html=1;fillColor=#f8cecc;strokeColor=#b85450;entryX=0.015;entryY=0.718;entryDx=0;entryDy=0;entryPerimeter=0;" edge="1" parent="1" source="6UEPnQRUCLDMeraKKGYE-5" target="6UEPnQRUCLDMeraKKGYE-16">
          <mxGeometry relative="1" as="geometry" />
        </mxCell>
        <mxCell id="6UEPnQRUCLDMeraKKGYE-22" style="rounded=0;orthogonalLoop=1;jettySize=auto;html=1;fillColor=#f8cecc;strokeColor=#b85450;entryX=0.034;entryY=0.708;entryDx=0;entryDy=0;entryPerimeter=0;" edge="1" parent="1" source="6UEPnQRUCLDMeraKKGYE-5" target="6UEPnQRUCLDMeraKKGYE-17">
          <mxGeometry relative="1" as="geometry">
            <mxPoint x="406" y="749" as="targetPoint" />
          </mxGeometry>
        </mxCell>
        <mxCell id="6UEPnQRUCLDMeraKKGYE-24" style="rounded=0;orthogonalLoop=1;jettySize=auto;html=1;fillColor=#f8cecc;strokeColor=#b85450;entryX=0.5;entryY=1;entryDx=0;entryDy=0;" edge="1" parent="1" source="6UEPnQRUCLDMeraKKGYE-5" target="6UEPnQRUCLDMeraKKGYE-23">
          <mxGeometry relative="1" as="geometry" />
        </mxCell>
        <mxCell id="6UEPnQRUCLDMeraKKGYE-31" style="edgeStyle=none;rounded=0;orthogonalLoop=1;jettySize=auto;html=1;fillColor=#f8cecc;strokeColor=#b85450;" edge="1" parent="1" source="6UEPnQRUCLDMeraKKGYE-5" target="6UEPnQRUCLDMeraKKGYE-30">
          <mxGeometry relative="1" as="geometry" />
        </mxCell>
        <mxCell id="6UEPnQRUCLDMeraKKGYE-36" style="edgeStyle=none;rounded=0;orthogonalLoop=1;jettySize=auto;html=1;entryX=0;entryY=0.5;entryDx=0;entryDy=0;fillColor=#f8cecc;strokeColor=#b85450;" edge="1" parent="1" source="6UEPnQRUCLDMeraKKGYE-5" target="6UEPnQRUCLDMeraKKGYE-28">
          <mxGeometry relative="1" as="geometry" />
        </mxCell>
        <mxCell id="6UEPnQRUCLDMeraKKGYE-5" value="&lt;font color=&quot;#ea6b66&quot;&gt;Administrator&lt;/font&gt;" style="shape=umlActor;verticalLabelPosition=bottom;verticalAlign=top;html=1;outlineConnect=0;fillColor=#f8cecc;strokeColor=#b85450;" vertex="1" parent="1">
          <mxGeometry x="186" y="960" width="30" height="60" as="geometry" />
        </mxCell>
        <mxCell id="6UEPnQRUCLDMeraKKGYE-10" value="" style="group" vertex="1" connectable="0" parent="1">
          <mxGeometry x="96" y="280" width="50" height="90" as="geometry" />
        </mxCell>
        <mxCell id="6UEPnQRUCLDMeraKKGYE-1" value="" style="shape=umlActor;verticalLabelPosition=bottom;verticalAlign=top;html=1;outlineConnect=0;" vertex="1" parent="6UEPnQRUCLDMeraKKGYE-10">
          <mxGeometry x="10" y="30" width="30" height="60" as="geometry" />
        </mxCell>
        <mxCell id="6UEPnQRUCLDMeraKKGYE-9" value="User" style="text;html=1;align=center;verticalAlign=middle;resizable=0;points=[];autosize=1;strokeColor=none;fillColor=none;" vertex="1" parent="6UEPnQRUCLDMeraKKGYE-10">
          <mxGeometry width="50" height="30" as="geometry" />
        </mxCell>
        <mxCell id="6UEPnQRUCLDMeraKKGYE-12" value="&lt;i&gt;Authenticate&lt;/i&gt;" style="ellipse;whiteSpace=wrap;html=1;" vertex="1" parent="1">
          <mxGeometry x="378.5" y="125" width="95" height="50" as="geometry" />
        </mxCell>
        <mxCell id="6UEPnQRUCLDMeraKKGYE-13" style="rounded=0;orthogonalLoop=1;jettySize=auto;html=1;" edge="1" parent="1" source="6UEPnQRUCLDMeraKKGYE-38" target="6UEPnQRUCLDMeraKKGYE-12">
          <mxGeometry relative="1" as="geometry" />
        </mxCell>
        <mxCell id="6UEPnQRUCLDMeraKKGYE-16" value="Create/update/delete a project" style="ellipse;whiteSpace=wrap;html=1;fontStyle=2" vertex="1" parent="1">
          <mxGeometry x="356" y="800" width="140" height="50" as="geometry" />
        </mxCell>
        <mxCell id="6UEPnQRUCLDMeraKKGYE-17" value="Create/update/delete a task" style="ellipse;whiteSpace=wrap;html=1;fontStyle=2" vertex="1" parent="1">
          <mxGeometry x="356" y="735" width="140" height="50" as="geometry" />
        </mxCell>
        <mxCell id="6UEPnQRUCLDMeraKKGYE-23" value="Assign/unassign&lt;div&gt;team members&lt;/div&gt;" style="ellipse;whiteSpace=wrap;html=1;" vertex="1" parent="1">
          <mxGeometry x="586" y="730" width="110" height="60" as="geometry" />
        </mxCell>
        <mxCell id="6UEPnQRUCLDMeraKKGYE-26" value="&lt;font style=&quot;font-size: 9px;&quot;&gt;&amp;lt;&amp;lt;extend&amp;gt;&amp;gt;&lt;/font&gt;" style="html=1;verticalAlign=bottom;labelBackgroundColor=none;endArrow=open;endFill=0;dashed=1;rounded=0;" edge="1" parent="1" source="6UEPnQRUCLDMeraKKGYE-23" target="6UEPnQRUCLDMeraKKGYE-17">
          <mxGeometry x="-0.2555" y="-5" width="160" relative="1" as="geometry">
            <mxPoint x="446" y="670" as="sourcePoint" />
            <mxPoint x="606" y="670" as="targetPoint" />
            <mxPoint as="offset" />
          </mxGeometry>
        </mxCell>
        <mxCell id="6UEPnQRUCLDMeraKKGYE-27" value="&lt;font style=&quot;font-size: 9px;&quot;&gt;&amp;lt;&amp;lt;extend&amp;gt;&amp;gt;&lt;/font&gt;" style="html=1;verticalAlign=bottom;labelBackgroundColor=none;endArrow=open;endFill=0;dashed=1;rounded=0;" edge="1" parent="1" source="6UEPnQRUCLDMeraKKGYE-23" target="6UEPnQRUCLDMeraKKGYE-16">
          <mxGeometry x="-0.1314" y="23" width="160" relative="1" as="geometry">
            <mxPoint x="529" y="790" as="sourcePoint" />
            <mxPoint x="464" y="777" as="targetPoint" />
            <mxPoint as="offset" />
          </mxGeometry>
        </mxCell>
        <mxCell id="6UEPnQRUCLDMeraKKGYE-28" value="&lt;i&gt;Update task progress&lt;/i&gt;" style="ellipse;whiteSpace=wrap;html=1;" vertex="1" parent="1">
          <mxGeometry x="386" y="505" width="80" height="50" as="geometry" />
        </mxCell>
        <mxCell id="6UEPnQRUCLDMeraKKGYE-30" value="Manage users" style="ellipse;whiteSpace=wrap;html=1;fontStyle=2" vertex="1" parent="1">
          <mxGeometry x="366" y="965" width="100" height="50" as="geometry" />
        </mxCell>
        <mxCell id="6UEPnQRUCLDMeraKKGYE-33" value="&lt;i&gt;Italic text&lt;/i&gt; means&lt;div&gt;a simplification&lt;/div&gt;&lt;div&gt;of a use case&lt;/div&gt;" style="shape=note;size=20;whiteSpace=wrap;html=1;fontStyle=0" vertex="1" parent="1">
          <mxGeometry x="720" y="197" width="100" height="100" as="geometry" />
        </mxCell>
        <mxCell id="6UEPnQRUCLDMeraKKGYE-34" value="Communicate" style="ellipse;whiteSpace=wrap;html=1;fontStyle=2" vertex="1" parent="1">
          <mxGeometry x="388.5" y="227" width="80" height="40" as="geometry" />
        </mxCell>
        <mxCell id="6UEPnQRUCLDMeraKKGYE-35" style="edgeStyle=none;rounded=0;orthogonalLoop=1;jettySize=auto;html=1;" edge="1" parent="1" source="6UEPnQRUCLDMeraKKGYE-1" target="6UEPnQRUCLDMeraKKGYE-34">
          <mxGeometry relative="1" as="geometry" />
        </mxCell>
        <mxCell id="6UEPnQRUCLDMeraKKGYE-38" value="Unknown" style="shape=umlActor;verticalLabelPosition=bottom;verticalAlign=top;html=1;outlineConnect=0;" vertex="1" parent="1">
          <mxGeometry x="106" y="120" width="30" height="60" as="geometry" />
        </mxCell>
        <mxCell id="6UEPnQRUCLDMeraKKGYE-39" value="Inheritance" style="shape=note;size=9;whiteSpace=wrap;html=1;fontStyle=0" vertex="1" parent="1">
          <mxGeometry x="6" y="370" width="90" height="25" as="geometry" />
        </mxCell>
        <mxCell id="6UEPnQRUCLDMeraKKGYE-40" value="Log out" style="ellipse;whiteSpace=wrap;html=1;fontStyle=0" vertex="1" parent="1">
          <mxGeometry x="388.5" y="319.5" width="80" height="37" as="geometry" />
        </mxCell>
        <mxCell id="6UEPnQRUCLDMeraKKGYE-41" style="edgeStyle=none;rounded=0;orthogonalLoop=1;jettySize=auto;html=1;" edge="1" parent="1" source="6UEPnQRUCLDMeraKKGYE-1" target="6UEPnQRUCLDMeraKKGYE-40">
          <mxGeometry relative="1" as="geometry" />
        </mxCell>
        <mxCell id="6UEPnQRUCLDMeraKKGYE-42" value="Manage profile" style="ellipse;whiteSpace=wrap;html=1;fontStyle=2" vertex="1" parent="1">
          <mxGeometry x="388.5" y="273" width="80" height="40" as="geometry" />
        </mxCell>
        <mxCell id="6UEPnQRUCLDMeraKKGYE-43" style="edgeStyle=none;rounded=0;orthogonalLoop=1;jettySize=auto;html=1;" edge="1" parent="1" source="6UEPnQRUCLDMeraKKGYE-1" target="6UEPnQRUCLDMeraKKGYE-42">
          <mxGeometry relative="1" as="geometry" />
        </mxCell>
        <mxCell id="6UEPnQRUCLDMeraKKGYE-44" value="Manage Task view" style="ellipse;whiteSpace=wrap;html=1;fontStyle=2" vertex="1" parent="1">
          <mxGeometry x="386" y="363" width="90" height="40" as="geometry" />
        </mxCell>
        <mxCell id="6UEPnQRUCLDMeraKKGYE-45" style="edgeStyle=none;rounded=0;orthogonalLoop=1;jettySize=auto;html=1;" edge="1" parent="1" source="6UEPnQRUCLDMeraKKGYE-1" target="6UEPnQRUCLDMeraKKGYE-44">
          <mxGeometry relative="1" as="geometry" />
        </mxCell>
        <mxCell id="6UEPnQRUCLDMeraKKGYE-47" value="Create time reports" style="ellipse;whiteSpace=wrap;html=1;fontStyle=0" vertex="1" parent="1">
          <mxGeometry x="361" y="670" width="140" height="50" as="geometry" />
        </mxCell>
      </root>
    </mxGraphModel>
  </diagram>
</mxfile>
